HIERARCHY
ROOT Hips
{
	OFFSET -14.64140 90.27770 -84.91600
	CHANNELS 6 Xposition Yposition Zposition Zrotation Xrotation Yrotation
	JOINT Spine
	{
		OFFSET 0.00000 13.20850 -1.60436
		CHANNELS 3 Zrotation Xrotation Yrotation
		JOINT Spine1
		{
			OFFSET 0.00000 8.61716 0.00000
			CHANNELS 3 Zrotation Xrotation Yrotation
			JOINT Spine2
			{
				OFFSET 0.00000 8.61717 0.00000
				CHANNELS 3 Zrotation Xrotation Yrotation
				JOINT Spine3
				{
					OFFSET 0.00000 8.61717 0.00000
					CHANNELS 3 Zrotation Xrotation Yrotation
					JOINT Neck
					{
						OFFSET 0.00000 11.07920 1.10792
						CHANNELS 3 Zrotation Xrotation Yrotation
						JOINT Neck1
						{
							OFFSET 0.00000 7.08032 0.00000
							CHANNELS 3 Zrotation Xrotation Yrotation
							JOINT Head
							{
								OFFSET 0.00000 7.08031 0.00000
								CHANNELS 3 Zrotation Xrotation Yrotation
								End site
								{
									OFFSET 0.00000 0.00000 0.00000
								}
							}
						}
					}
					JOINT RightShoulder
					{
						OFFSET -0.01000 7.91373 5.19711
						CHANNELS 3 Zrotation Xrotation Yrotation
						JOINT RightArm
						{
							OFFSET -18.41580 0.00000 0.00000
							CHANNELS 3 Zrotation Xrotation Yrotation
							JOINT RightForeArm
							{
								OFFSET -29.11090 0.00000 0.00000
								CHANNELS 3 Zrotation Xrotation Yrotation
								JOINT RightHand
								{
									OFFSET -24.65040 0.00000 0.00000
									CHANNELS 3 Zrotation Xrotation Yrotation
									JOINT RightHandThumb1
									{
										OFFSET -5.35114 -0.85590 3.97906
										CHANNELS 3 Zrotation Xrotation Yrotation
										JOINT RightHandThumb2
										{
											OFFSET -4.52789 0.00000 0.00000
											CHANNELS 3 Zrotation Xrotation Yrotation
											JOINT RightHandThumb3
											{
												OFFSET -2.46976 0.00000 0.00000
												CHANNELS 3 Zrotation Xrotation Yrotation
												End site
												{
													OFFSET 0.00000 0.00000 0.00000
												}
											}
										}
									}
									JOINT RightHandIndex1
									{
										OFFSET -14.26970 0.00000 2.88139
										CHANNELS 3 Zrotation Xrotation Yrotation
										JOINT RightHandIndex2
										{
											OFFSET -5.48836 0.00000 0.00000
											CHANNELS 3 Zrotation Xrotation Yrotation
											JOINT RightHandIndex3
											{
												OFFSET -3.01859 0.00000 0.00000
												CHANNELS 3 Zrotation Xrotation Yrotation
												End site
												{
													OFFSET 0.00000 0.00000 0.00000
												}
											}
										}
									}
									JOINT RightHandMiddle1
									{
										OFFSET -14.26970 0.00000 -0.09147
										CHANNELS 3 Zrotation Xrotation Yrotation
										JOINT RightHandMiddle2
										{
											OFFSET -6.17441 0.00000 0.00000
											CHANNELS 3 Zrotation Xrotation Yrotation
											JOINT RightHandMiddle3
											{
												OFFSET -3.56743 0.00000 0.00000
												CHANNELS 3 Zrotation Xrotation Yrotation
												End site
												{
													OFFSET 0.00000 0.00000 0.00000
												}
											}
										}
									}
									JOINT RightHandRing1
									{
										OFFSET -12.69180 0.00000 -3.06433
										CHANNELS 3 Zrotation Xrotation Yrotation
										JOINT RightHandRing2
										{
											OFFSET -5.62556 0.00000 0.00000
											CHANNELS 3 Zrotation Xrotation Yrotation
											JOINT RightHandRing3
											{
												OFFSET -3.56744 0.00000 0.00000
												CHANNELS 3 Zrotation Xrotation Yrotation
												End site
												{
													OFFSET 0.00000 0.00000 0.00000
												}
											}
										}
									}
									JOINT RightHandPinky1
									{
										OFFSET -11.11390 0.00000 -6.03719
										CHANNELS 3 Zrotation Xrotation Yrotation
										JOINT RightHandPinky2
										{
											OFFSET -4.52789 0.00000 0.00000
											CHANNELS 3 Zrotation Xrotation Yrotation
											JOINT RightHandPinky3
											{
												OFFSET -2.46976 0.00000 0.00000
												CHANNELS 3 Zrotation Xrotation Yrotation
												End site
												{
													OFFSET 0.00000 0.00000 0.00000
												}
											}
										}
									}
								}
							}
						}
					}
					JOINT LeftShoulder
					{
						OFFSET 0.01000 7.91373 5.19711
						CHANNELS 3 Zrotation Xrotation Yrotation
						JOINT LeftArm
						{
							OFFSET 18.41580 0.00000 0.00000
							CHANNELS 3 Zrotation Xrotation Yrotation
							JOINT LeftForeArm
							{
								OFFSET 29.11090 0.00000 0.00000
								CHANNELS 3 Zrotation Xrotation Yrotation
								JOINT LeftHand
								{
									OFFSET 24.65040 0.00000 0.00000
									CHANNELS 3 Zrotation Xrotation Yrotation
									JOINT LeftHandThumb1
									{
										OFFSET 5.35114 -0.85590 3.97906
										CHANNELS 3 Zrotation Xrotation Yrotation
										JOINT LeftHandThumb2
										{
											OFFSET 4.52789 0.00000 0.00000
											CHANNELS 3 Zrotation Xrotation Yrotation
											JOINT LeftHandThumb3
											{
												OFFSET 2.46977 0.00000 0.00000
												CHANNELS 3 Zrotation Xrotation Yrotation
												End site
												{
													OFFSET 0.00000 0.00000 0.00000
												}
											}
										}
									}
									JOINT LeftHandIndex1
									{
										OFFSET 14.26970 0.00000 2.88139
										CHANNELS 3 Zrotation Xrotation Yrotation
										JOINT LeftHandIndex2
										{
											OFFSET 5.48836 0.00000 0.00000
											CHANNELS 3 Zrotation Xrotation Yrotation
											JOINT LeftHandIndex3
											{
												OFFSET 3.01859 0.00000 0.00000
												CHANNELS 3 Zrotation Xrotation Yrotation
												End site
												{
													OFFSET 0.00000 0.00000 0.00000
												}
											}
										}
									}
									JOINT LeftHandMiddle1
									{
										OFFSET 14.26970 0.00000 -0.09147
										CHANNELS 3 Zrotation Xrotation Yrotation
										JOINT LeftHandMiddle2
										{
											OFFSET 6.17440 0.00000 0.00000
											CHANNELS 3 Zrotation Xrotation Yrotation
											JOINT LeftHandMiddle3
											{
												OFFSET 3.56744 0.00000 0.00000
												CHANNELS 3 Zrotation Xrotation Yrotation
												End site
												{
													OFFSET 0.00000 0.00000 0.00000
												}
											}
										}
									}
									JOINT LeftHandRing1
									{
										OFFSET 12.69180 0.00000 -3.06433
										CHANNELS 3 Zrotation Xrotation Yrotation
										JOINT LeftHandRing2
										{
											OFFSET 5.62556 0.00000 0.00000
											CHANNELS 3 Zrotation Xrotation Yrotation
											JOINT LeftHandRing3
											{
												OFFSET 3.56744 0.00000 0.00000
												CHANNELS 3 Zrotation Xrotation Yrotation
												End site
												{
													OFFSET 0.00000 0.00000 0.00000
												}
											}
										}
									}
									JOINT LeftHandPinky1
									{
										OFFSET 11.11390 0.00000 -6.03719
										CHANNELS 3 Zrotation Xrotation Yrotation
										JOINT LeftHandPinky2
										{
											OFFSET 4.52789 0.00000 0.00000
											CHANNELS 3 Zrotation Xrotation Yrotation
											JOINT LeftHandPinky3
											{
												OFFSET 2.46976 0.00000 0.00000
												CHANNELS 3 Zrotation Xrotation Yrotation
												End site
												{
													OFFSET 0.00000 0.00000 0.00000
												}
											}
										}
									}
								}
							}
						}
					}
					JOINT pCube4
					{
						OFFSET 0.00000 10.91090 1.10792
						CHANNELS 3 Zrotation Xrotation Yrotation
						End site
						{
							OFFSET 0.00000 0.00000 0.00000
						}
					}
				}
			}
		}
	}
	JOINT RightUpLeg
	{
		OFFSET -9.98441 0.00000 0.00000
		CHANNELS 3 Zrotation Xrotation Yrotation
		JOINT RightLeg
		{
			OFFSET 0.00000 -42.11790 0.00000
			CHANNELS 3 Zrotation Xrotation Yrotation
			JOINT RightFoot
			{
				OFFSET 0.00000 -45.00020 -0.00001
				CHANNELS 3 Zrotation Xrotation Yrotation
				JOINT RightForeFoot
				{
					OFFSET 0.00000 -3.74820 0.00000
					CHANNELS 3 Zrotation Xrotation Yrotation
					JOINT RightToeBase
					{
						OFFSET 0.00000 0.06325 14.43120
						CHANNELS 3 Zrotation Xrotation Yrotation
						End site
						{
							OFFSET 0.00000 0.00000 0.00000
						}
					}
				}
			}
		}
	}
	JOINT LeftUpLeg
	{
		OFFSET 9.98441 0.00000 0.00000
		CHANNELS 3 Zrotation Xrotation Yrotation
		JOINT LeftLeg
		{
			OFFSET 0.00000 -42.11800 0.00000
			CHANNELS 3 Zrotation Xrotation Yrotation
			JOINT LeftFoot
			{
				OFFSET 0.00000 -45.00070 0.00000
				CHANNELS 3 Zrotation Xrotation Yrotation
				JOINT LeftForeFoot
				{
					OFFSET 0.00000 -3.74824 0.00000
					CHANNELS 3 Zrotation Xrotation Yrotation
					JOINT LeftToeBase
					{
						OFFSET 0.00000 0.06325 14.43110
						CHANNELS 3 Zrotation Xrotation Yrotation
						End site
						{
							OFFSET 0.00000 0.00000 0.00000
						}
					}
				}
			}
		}
	}
}
MOTION
Frames: 4
Frame Time: 0.050000
0.022122741360796498 -0.04988480497364211 -0.020471924072987317 -0.04337404977827763 0.0054396634261808866 -0.007913009551286541 -1.3287338085726124 0.8361376074418672 -1.2600579504017877 -0.14579819103933755 3.7642664501009016 0.25426603099267825 -0.5749700300113879 -1.9129296132991305 0.603217312982078 -1.0956903170930343 -1.2300950145847345 -0.4449354845923205 -0.4252734509331937 12.164783240909621 -0.5789855732063424 0.6044517015810342 -1.4503523652373647 -1.7937018269025506 0.9616246555837868 -17.319307499376215 -0.24773402932351246 0.06232555124234327 0.7435057074105749 -14.72674378677476 74.04771602349969 7.791087880556339 3.9960270232137463 28.275047345348614 16.17149203242564 101.91709785547357 27.70456289149461 -0.2172097156537756 -5.166147047284045 4.543553394060918 -0.15573939275623644 -1.636141797086923 -0.025715176020002898 0.001522856334497416 -56.23943732419544 -0.024472208800888264 0.0339054137400222 -56.230175040100484 -38.7631434636653 -0.028052943046312468 -0.019803055283976433 0.04570066429560836 0.04021979053900786 -0.03222363257289153 0.008960544002368528 0.004998470644458986 0.034124706588059356 -36.71343201337795 -0.02596528921296412 -0.0428502595972082 0.014463284725792534 -0.004981306925792867 -0.014529883217485726 -0.04518444460865512 0.045571992831162714 0.004627629844139024 -19.791874953251053 -0.03279237028124828 -0.022201484798534024 -0.02513096670244695 0.030080704067509862 -0.020811461103545602 0.003728786552670537 -0.0459051325439764 0.012472214326800693 24.064236156028702 -0.03570928198706982 0.04153914711657992 28.863034506828548 -0.030023228136134707 -0.02271054881159301 28.90006545294686 3.768936557125057e-05 0.028061243049510656 4.326290594143474 1.4502494809742452 13.927105755164641 -79.37312493650418 13.726868569832616 -10.169761294511424 -62.23758882478455 23.15223063511925 -108.78438375347031 -29.62592325407753 3.751140507815947 -1.5354732517880267 -0.48701453966453284 0.08780371182230544 -8.13386624392436 0.008422405106510626 -0.04789887680935091 44.56825739188028 0.03986166645703094 -0.022572720902837573 44.59733066024011 12.44023745849524 -0.04705776970046283 -0.02072420947214704 0.00023075347266440208 0.019009691532127514 0.006368301657065806 -0.014797852645456777 -0.04130211750772194 0.04509616724372675 11.079738658560192 -0.04395539207465474 0.0012004155524702165 -0.01197765732987038 -0.023409783532898232 -0.01809998371029497 0.013519958308338152 -0.01478371444272914 0.008930029312287906 4.795779940665049 -0.005066780209112479 -0.04560149020541102 0.010216081832620799 0.04592565432261879 0.045646061536847186 -0.0060432206254822434 -0.020156063233100697 -0.003382003731385321 -5.561273580657612 0.027757325902359964 -0.03149977812943008 -6.743443830688617 0.012033406201941411 -0.0133714429527238 -6.753338432054901 0.04737564916758725 -0.006705365769484725 -0.01722875934244955 0.005874303271629335 0.017904556607763012 8.042717977510842 3.543220679347496 -19.21311693186419 -0.0402779664938366 10.371198097069168 -0.03303900731482583 -5.655321787832349 -15.701404059928745 3.150167363923508 0.042167210195392414 -0.03831419337936954 -0.04778802086593872 -0.005468592991180211 4.708776112279134 -0.015154325385317996 12.446860843474443 -8.189342371635467 6.893594757947613 0.008121055173897006 46.381773882719365 -0.022389187331773162 -4.291085173462977 -14.760017139723814 -3.8504933916456245 0.010529096666807866 0.024018530180892783 -0.025643956652795844 0.045146592817966194 -10.719924443988045 0.030415562583049505 
0.011452136021792932 -0.03454284125476822 -0.04172216078178123 0.0031010710081574716 -0.007604714563467585 -0.038761736747105396 -1.4355196260234764 1.0040573851625663 -1.1581492962201996 -0.18528025504971565 3.836547115996008 0.22578163988335204 -0.6025641359636238 -1.8980128077976681 0.6183360098854758 -1.1361649758550896 -1.1653266398206013 -0.4440684730043076 -0.47990906862771815 12.026754650132235 -0.39937163318378127 0.6068968286304693 -1.4178848905218902 -1.5212301813170708 0.9045439161989345 -17.25802593399119 -0.15223323189245286 0.29917347177806813 0.6398407717974761 -14.584986377119373 73.77614906911374 8.229954700307452 3.7804206908953666 25.688196147687094 16.370798955960637 100.30360063432848 27.75520891345141 -0.28388910143413093 -4.929332961922286 4.512116739862526 -0.13257396446063127 -1.5761148521554436 -0.010672246858680177 0.03934987628043134 -56.20229443122153 0.034278229267602656 -0.018073783604236 -56.20601137692851 -38.768445749866 -0.008106312610070854 0.03522174508943519 0.008519554351099329 0.04617788057493444 0.01799503505601459 -0.008921328231954937 0.0020062193445535086 0.035041150808717524 -36.72975700667131 -0.027028174173436503 -0.04919948119864157 0.011505888214822475 -0.014267797998550337 -0.01308969384145089 0.01658667251486714 0.001771773218409065 0.006885874675639338 -19.717955479061306 0.028240091213045784 0.012333373831542486 0.02351107957088741 -0.02483955855403401 -0.030584259004601586 -0.00019713976482885944 0.03282616890195816 0.0017245047261973993 24.03564114410962 0.04203210977974159 -0.017944122495924007 28.856029328848518 -0.0171299973919809 -5.562300727823137e-06 28.862495001311853 0.03003751109116074 0.04491376781462524 4.131475609519214 1.3809006122226066 13.850936764141357 -78.76849223098566 14.596238741656549 -10.063675856388556 -57.95578184058009 22.782722510880657 -106.03824744232085 -30.314602326312798 2.9486729404417638 -0.9616447237110552 -0.44844627476735144 0.08584286862753969 -8.130425836417787 -0.005542861588069618 0.047533404651785016 44.538469559949434 0.008661294939151156 0.04461737068355215 44.57602921877791 12.509308604479063 -0.033699365039616125 -0.008346134448958487 -0.02120358034750332 0.001421788150663593 0.03949807147171385 -0.029428769039039113 0.0290687342883475 -0.028295593616004765 11.071576955532468 0.0227089651537786 -0.01878441994910085 0.03236174308641081 0.0383819391841688 -0.01485924495063757 0.042670112425301034 -0.013663161940812518 0.01856894565599296 4.76582686340848 0.037907895369876744 0.0007844616504224393 -0.04941386805008547 0.034211743879950345 0.03098521918908388 -0.01877608827529284 -0.007474042458868547 0.042051388878282116 -5.582309359639121 0.007571554492881619 0.037863707437901954 -6.713996205622565 -0.025460750314415297 -0.025164272767685878 -6.707019498937397 -0.03550774920814154 -0.004894228650593684 0.016552009708314077 0.003758679961015103 -0.018669141681904294 8.076842054358151 3.4998828119430607 -19.2165068870151 -0.006540179126798829 10.359220263319353 0.03161584025822349 -5.596584376907943 -15.669306267903858 3.1700685530468076 0.03427415321398377 -0.022761975414574254 -0.012241920159102452 -0.04473934936657955 4.724219629229884 0.021201634119154787 12.452213669999425 -8.257292123095056 6.854132336145319 -0.014833444067863395 46.36784364933849 0.026394890230594326 -4.280123929307418 -14.765138860730532 -3.8335537180750134 0.027168993540451315 -0.03708944329245465 0.025536528781018662 -0.04253621010674507 -10.719932864025996 -0.012107267710203318 
0.038976011193346614 -0.042524045149770553 0.013108773468892011 -0.03517866878887464 0.030445825365979617 0.014560767813692994 -1.1455908924183287 1.2359956474595393 -1.2202418341473569 -0.1842337470378851 3.7892367081454923 0.2804048053833453 -0.5840101235651002 -1.7693051827927875 0.5681299193443542 -1.1330555682167773 -1.1724694492336625 -0.42721205604816354 -0.5024553850873279 11.903297806951876 -0.2899989835190368 0.5188231775985558 -1.4046074156841934 -1.1849357337695652 0.7662922225794044 -17.241065930787844 -0.1733931205152549 0.10206653908328055 0.72902645930059 -14.68002227383005 73.97120295457701 9.278366550098637 3.096451529617809 22.869941838710798 16.302173414782008 97.25473152323154 27.74836925561391 -0.3016424847021037 -4.878966472278198 4.556936451265536 -0.133232324877188 -1.6315621790367396 -0.017059303946027334 0.03962266822154196 -56.245858720384014 -0.014490502602013445 0.016627878590102174 -56.21197006485337 -38.764367085243244 -0.039235226198127894 -0.015759350057741154 -0.005113919729251028 -0.017061921740227446 -0.0366225999409094 -0.003982333526261417 0.02773273471091192 -0.01775668117324945 -36.6863994996898 0.011632832733024675 0.024406918527439734 -0.018580306020522762 0.04347601160472911 -0.03814961841122402 -0.03639991387648139 -0.026936041260016863 -0.031673944913038654 -19.73890612947967 0.01225055676652008 -0.04137810312022039 -0.03487178071017435 -0.012226094782908788 -0.03581124176424654 0.028220084747807756 0.03663703552699687 -0.019281346194091012 24.065935807391593 0.03994180408402197 0.04639138664528441 28.83920733514701 -0.033665100841657754 0.03681597009836921 28.828149074619816 -0.003847649404669714 0.027721332425891487 4.243395073869764 1.4239021213482803 13.787429436236426 -78.19541442649444 15.922521645747967 -10.083909526031132 -53.62768904052132 21.906737739788138 -102.74036272648763 -30.950907916197327 1.2571209693025185 0.42302881885243393 -0.4844899127881853 0.0738975947952694 -8.126934806695957 -0.019004018091867775 -0.008603094398278024 44.57094804024297 0.013614900531497373 0.015620801674011874 44.58676229414523 12.499799799777405 -0.020652267941797076 0.03515298963797511 0.04738104822505012 0.006531896226703834 0.021950379029786065 0.030326112189183265 0.029993617815893905 0.003206850051033115 11.078193372352205 0.005818358180874711 0.039112124421563255 -0.049399406361457135 -0.045209626140565354 0.018529925051869407 -0.009253102381302225 0.03166320952400886 -0.03623309763499694 4.771013936836448 0.007816021378728416 0.01736124034615154 0.03408696786025866 0.006222622711299749 0.019440558644185854 -0.02863013293501959 0.04725165940277176 0.015208620589863433 -5.591505713610756 0.002485777647198554 -0.0007560404224105246 -6.727408132987504 -0.02830986820026609 -0.00041820180787887 -6.733807720408318 -0.04394807132579879 0.011492590435055468 0.029859147246450935 0.011676380092352537 -0.026673383040439265 8.044061572570667 3.4812300622946837 -19.200653239464543 -0.013204958679669676 10.375466498917847 0.03932947626381207 -5.620676885213277 -15.625066421165284 3.220908281978 0.01649155309992929 -0.03709445250311689 -0.03626776424633185 -0.001879847364069832 4.675809253854879 -0.024625287444616537 12.499027906508532 -8.23428631305146 6.870283398011452 0.008512888526924486 46.37212867302517 -0.004391156505211559 -4.300669824768435 -14.734882925348815 -3.871565803948065 -0.020298246484026273 -0.024426770781890705 0.0014319920327627966 -0.03532380604576753 -10.752467524299934 -0.027191415111092583 
0.002853598091826248 0.04867710218951658 -0.0415745636664974 -0.016203753325745397 -0.02292520515405884 0.0076636306940459035 -0.5510032639338236 1.4445494354178972 -1.3471014986986587 -0.21227046038367636 3.7826725096448626 0.2809351527372042 -0.5744594520007711 -1.6907213684449436 0.5308815119154618 -1.0203309935650653 -1.1164971767930296 -0.39236391603513104 -0.534150300312004 11.722778732879542 -0.13544761080307294 0.5415269668836223 -1.2941601565866998 -0.8809577624930284 0.7709516746124814 -17.162484755066526 -0.1677306122849015 -0.4996961133587874 0.977868762089467 -14.823355672087313 74.45589806258762 10.557007220059312 2.264877931320212 20.73063693425656 15.673492478624288 94.47490009934087 27.036288316858407 -0.3164831829996537 -5.058475153220105 4.5329393740313515 -0.13977690968507342 -1.5775736538042464 0.0272868106301067 -0.002678431176391688 -56.268238575004666 -0.0417950669014146 0.021815675364607646 -56.25216957143075 -38.796342095407105 0.04091235462128805 -0.015123157072563792 0.00013528086609439625 0.048705763281858265 0.03672049475393624 -0.015298986399965658 0.023477642177925282 0.01935106555799903 -36.65672005963724 0.04042148164872836 -0.01805582206318813 -0.04870828274902429 0.02075541983113213 0.03396748855304596 0.014894825381213976 0.0011265700747042449 0.030294097352656344 -19.789239458869858 0.03760784087941406 0.0349882567253163 0.004300819645454633 -0.0031263000966282183 0.04724535342476476 0.034517871319982456 -0.004457238009105603 -0.019269346389628166 24.08707095693441 -0.0042724002878820186 -0.004056030506319807 28.87900648787275 0.037861160327640093 -0.006251300989426083 28.861536717027082 0.0036646651198117136 -0.020773636301318028 4.80043152354405 1.4737990408952095 13.783800089738616 -77.49471777925845 17.81178440365769 -10.3129075082845 -49.91055610342146 20.30122837765192 -99.86524095985514 -30.892627338057334 -1.217597441892508 2.4964249677977985 -0.457259467859213 0.03981465646009215 -8.144390089363277 0.02663243996796988 -0.03524487053460399 44.57168930406213 0.04960175603206615 0.03120605316978866 44.5504008628543 12.494810225918432 -0.019419107005515135 0.03753439306886771 0.040858175410893205 0.0129516119108259 -0.03521060293517487 0.026360635513818505 -0.030905321013075367 0.010058317673053962 11.082646044070671 0.03823072127886652 -0.019013828134418303 0.02537120730817117 -0.011119786770918164 0.012105950785347465 0.021759909708423366 0.021817889377883284 0.008748411565929405 4.73341806504293 0.04948325746280927 0.005260647439838638 0.046130712014501404 0.01825504800166051 0.013874317759026464 -0.026975344115057445 0.046275127180640814 0.03839244396478945 -5.626766506678593 0.022466271499901633 0.046553552892238545 -6.703779184121888 0.014463805081437141 0.022394277867070725 -6.73538490828612 0.02150688648539023 6.1767093933651e-06 0.010765303346171535 0.02361044990620369 0.005329706627706778 8.07098102809921 3.4699828577418708 -19.260073818735282 0.0012290419870353028 10.43149493991691 0.003266828424126929 -5.604720925727674 -15.625595908376825 3.2040272953866187 0.012054271537689518 -0.013784760731153525 -0.0035362079633461004 0.02344274329237759 4.708515974588845 -0.047081584818365406 12.457605551063983 -8.252640534715436 6.932141062434021 -0.0016747928331856245 46.428515134569736 -0.02344980217754257 -4.283524041982221 -14.741780539313957 -3.867234665448701 -0.015267174349871042 0.020951559240311612 0.020077533578563223 -0.012039484785793707 -10.737585058053385 -0.009339088721928368 
